<svg width="30" height="30" viewBox="0 0 30 30" fill="none" xmlns="http://www.w3.org/2000/svg">
<path fill-rule="evenodd" clip-rule="evenodd" d="M15 27.5C21.9036 27.5 27.5 21.9036 27.5 15C27.5 8.09644 21.9036 2.5 15 2.5C8.09644 2.5 2.5 8.09644 2.5 15C2.5 21.9036 8.09644 27.5 15 27.5ZM16.6161 7.86612L10.3661 14.1161C9.87796 14.6043 9.87796 15.3957 10.3661 15.8839L16.6161 22.1339C17.1043 22.622 17.8957 22.622 18.3839 22.1339C18.872 21.6457 18.872 20.8543 18.3839 20.3661L13.0178 15L18.3839 9.63388C18.872 9.14573 18.872 8.35427 18.3839 7.86612C17.8957 7.37796 17.1043 7.37796 16.6161 7.86612Z" fill="white"/>
</svg>
