<svg width="20" height="20" viewBox="0 0 20 20" fill="none" xmlns="http://www.w3.org/2000/svg">
<path fill-rule="evenodd" clip-rule="evenodd" d="M12 2C15.3137 2 18 4.68629 18 8C18 11.3137 15.3137 14 12 14C8.68629 14 6 11.3137 6 8C6 4.68629 8.68629 2 12 2ZM20 8C20 3.58172 16.4183 0 12 0C7.58172 0 4 3.58172 4 8C4 12.4183 7.58172 16 12 16C16.4183 16 20 12.4183 20 8Z" fill="#AFAFAF"/>
<path fill-rule="evenodd" clip-rule="evenodd" d="M7.70711 12.2929C7.31658 11.9024 6.68342 11.9024 6.29289 12.2929L0.292892 18.2929C-0.0976315 18.6834 -0.0976315 19.3166 0.292892 19.7071C0.683416 20.0976 1.31658 20.0976 1.70711 19.7071L7.70711 13.7071C8.09763 13.3166 8.09763 12.6834 7.70711 12.2929Z" fill="#AFAFAF"/>
</svg>
