<svg width="18" height="14" viewBox="0 0 18 14" fill="none" xmlns="http://www.w3.org/2000/svg">
<path fill-rule="evenodd" clip-rule="evenodd" d="M0 1C0 0.447715 0.447715 0 1 0H17C17.5523 0 18 0.447715 18 1C18 1.55228 17.5523 2 17 2H1C0.447715 2 0 1.55228 0 1Z" fill="black"/>
<path fill-rule="evenodd" clip-rule="evenodd" d="M0 7C0 6.44772 0.447715 6 1 6H7C7.55228 6 8 6.44772 8 7C8 7.55228 7.55228 8 7 8H1C0.447715 8 0 7.55228 0 7Z" fill="black"/>
<path fill-rule="evenodd" clip-rule="evenodd" d="M0 13C0 12.4477 0.447715 12 1 12H12C12.5523 12 13 12.4477 13 13C13 13.5523 12.5523 14 12 14H1C0.447715 14 0 13.5523 0 13Z" fill="black"/>
</svg>
